<mxfile host="app.diagrams.net" modified="2023-01-15T15:55:25.236Z" agent="5.0 (Windows NT 10.0; Win64; x64) AppleWebKit/537.36 (KHTML, like Gecko) Chrome/109.0.0.0 Safari/537.36 Edg/109.0.1518.49" etag="mXFzJCDLqRzoCFF1Qmcb" version="20.6.2" type="github">
  <diagram id="1bpVIfLe5_dsUP13_QPI" name="第 1 页">
    <mxGraphModel dx="1422" dy="-383" grid="1" gridSize="10" guides="1" tooltips="1" connect="1" arrows="1" fold="1" page="1" pageScale="1" pageWidth="827" pageHeight="1169" math="0" shadow="0">
      <root>
        <mxCell id="0" />
        <mxCell id="1" parent="0" />
        <mxCell id="-sKiiCvHk2BtwBTyNo6D-1" value="" style="group" vertex="1" connectable="0" parent="1">
          <mxGeometry x="40" y="1310" width="770" height="310" as="geometry" />
        </mxCell>
        <mxCell id="Lkpm1lcb8TPIVfQLZ-2U-61" value="&lt;font style=&quot;font-size: 12px;&quot;&gt;请求&lt;/font&gt;" style="rounded=1;whiteSpace=wrap;html=1;fontSize=16;fillColor=#fff2cc;strokeColor=#d6b656;" parent="-sKiiCvHk2BtwBTyNo6D-1" vertex="1">
          <mxGeometry x="280" width="120" height="55" as="geometry" />
        </mxCell>
        <mxCell id="Lkpm1lcb8TPIVfQLZ-2U-62" value="&lt;font style=&quot;font-size: 12px;&quot;&gt;缓存&lt;/font&gt;" style="rounded=1;whiteSpace=wrap;html=1;fontSize=12;fillColor=#f8cecc;strokeColor=#b85450;" parent="-sKiiCvHk2BtwBTyNo6D-1" vertex="1">
          <mxGeometry y="100" width="120" height="60" as="geometry" />
        </mxCell>
        <mxCell id="Lkpm1lcb8TPIVfQLZ-2U-63" value="&lt;font style=&quot;font-size: 12px;&quot;&gt;缓存&lt;/font&gt;" style="rounded=1;whiteSpace=wrap;html=1;fontSize=12;fillColor=#d5e8d4;strokeColor=#82b366;" parent="-sKiiCvHk2BtwBTyNo6D-1" vertex="1">
          <mxGeometry x="650" y="100" width="120" height="60" as="geometry" />
        </mxCell>
        <mxCell id="Lkpm1lcb8TPIVfQLZ-2U-64" value="" style="edgeStyle=orthogonalEdgeStyle;rounded=0;orthogonalLoop=1;jettySize=auto;html=1;strokeColor=#009900;strokeWidth=2;fontSize=12;endArrow=classic;endFill=1;" parent="-sKiiCvHk2BtwBTyNo6D-1" source="Lkpm1lcb8TPIVfQLZ-2U-66" target="Lkpm1lcb8TPIVfQLZ-2U-63" edge="1">
          <mxGeometry relative="1" as="geometry" />
        </mxCell>
        <mxCell id="Lkpm1lcb8TPIVfQLZ-2U-66" value="&lt;font style=&quot;font-size: 12px;&quot;&gt;定时器&lt;/font&gt;" style="rounded=1;whiteSpace=wrap;html=1;fontSize=12;fillColor=#d5e8d4;strokeColor=#82b366;" parent="-sKiiCvHk2BtwBTyNo6D-1" vertex="1">
          <mxGeometry x="560" y="100" width="70" height="60" as="geometry" />
        </mxCell>
        <mxCell id="Lkpm1lcb8TPIVfQLZ-2U-73" value="" style="endArrow=classic;html=1;rounded=0;fontSize=12;exitX=0.25;exitY=1;exitDx=0;exitDy=0;entryX=0.5;entryY=0;entryDx=0;entryDy=0;strokeColor=#FF0000;strokeWidth=2;endFill=1;" parent="-sKiiCvHk2BtwBTyNo6D-1" source="Lkpm1lcb8TPIVfQLZ-2U-61" target="Lkpm1lcb8TPIVfQLZ-2U-62" edge="1">
          <mxGeometry width="50" height="50" relative="1" as="geometry">
            <mxPoint x="290" y="190" as="sourcePoint" />
            <mxPoint x="340" y="140" as="targetPoint" />
            <Array as="points">
              <mxPoint x="310" y="70" />
              <mxPoint x="60" y="70" />
            </Array>
          </mxGeometry>
        </mxCell>
        <mxCell id="Lkpm1lcb8TPIVfQLZ-2U-74" value="" style="endArrow=classic;html=1;rounded=0;strokeColor=#009900;strokeWidth=2;fontSize=12;exitX=0.75;exitY=1;exitDx=0;exitDy=0;entryX=0.5;entryY=0;entryDx=0;entryDy=0;" parent="-sKiiCvHk2BtwBTyNo6D-1" source="Lkpm1lcb8TPIVfQLZ-2U-61" target="Lkpm1lcb8TPIVfQLZ-2U-63" edge="1">
          <mxGeometry width="50" height="50" relative="1" as="geometry">
            <mxPoint x="290" y="190" as="sourcePoint" />
            <mxPoint x="340" y="140" as="targetPoint" />
            <Array as="points">
              <mxPoint x="370" y="70" />
              <mxPoint x="710" y="70" />
            </Array>
          </mxGeometry>
        </mxCell>
        <mxCell id="Lkpm1lcb8TPIVfQLZ-2U-78" value="" style="endArrow=classic;html=1;rounded=0;strokeColor=#FF0000;strokeWidth=2;fontSize=12;exitX=0.5;exitY=1;exitDx=0;exitDy=0;entryX=0;entryY=0.5;entryDx=0;entryDy=0;" parent="-sKiiCvHk2BtwBTyNo6D-1" source="Lkpm1lcb8TPIVfQLZ-2U-62" target="Lkpm1lcb8TPIVfQLZ-2U-68" edge="1">
          <mxGeometry width="50" height="50" relative="1" as="geometry">
            <mxPoint x="360" y="200" as="sourcePoint" />
            <mxPoint x="210" y="270" as="targetPoint" />
            <Array as="points">
              <mxPoint x="60" y="280" />
            </Array>
          </mxGeometry>
        </mxCell>
        <mxCell id="Lkpm1lcb8TPIVfQLZ-2U-80" value="优化前" style="text;html=1;strokeColor=none;fillColor=none;align=center;verticalAlign=middle;whiteSpace=wrap;rounded=0;dashed=1;fontSize=14;fontColor=#FF6666;fontStyle=1" parent="-sKiiCvHk2BtwBTyNo6D-1" vertex="1">
          <mxGeometry x="140" y="40" width="60" height="30" as="geometry" />
        </mxCell>
        <mxCell id="Lkpm1lcb8TPIVfQLZ-2U-81" value="优化后" style="text;html=1;strokeColor=none;fillColor=none;align=center;verticalAlign=middle;whiteSpace=wrap;rounded=0;dashed=1;fontSize=14;fontColor=#009900;fontStyle=1" parent="-sKiiCvHk2BtwBTyNo6D-1" vertex="1">
          <mxGeometry x="495" y="40" width="60" height="30" as="geometry" />
        </mxCell>
        <mxCell id="Lkpm1lcb8TPIVfQLZ-2U-83" value="&lt;font style=&quot;font-size: 12px;&quot;&gt;生成详情&lt;/font&gt;" style="rounded=1;whiteSpace=wrap;html=1;fontSize=12;fillColor=#dae8fc;strokeColor=#6c8ebf;" parent="-sKiiCvHk2BtwBTyNo6D-1" vertex="1">
          <mxGeometry x="280" y="100" width="120" height="60" as="geometry" />
        </mxCell>
        <mxCell id="Lkpm1lcb8TPIVfQLZ-2U-93" value="" style="endArrow=classic;html=1;rounded=0;dashed=1;strokeColor=#009900;strokeWidth=2;fontSize=12;exitX=0;exitY=0.5;exitDx=0;exitDy=0;entryX=1;entryY=0.5;entryDx=0;entryDy=0;dashPattern=1 1;startArrow=classic;startFill=1;" parent="-sKiiCvHk2BtwBTyNo6D-1" target="Lkpm1lcb8TPIVfQLZ-2U-83" edge="1">
          <mxGeometry width="50" height="50" relative="1" as="geometry">
            <mxPoint x="560" y="130" as="sourcePoint" />
            <mxPoint x="400.0000000000002" y="110" as="targetPoint" />
            <Array as="points">
              <mxPoint x="520" y="130" />
              <mxPoint x="470" y="130" />
            </Array>
          </mxGeometry>
        </mxCell>
        <mxCell id="Lkpm1lcb8TPIVfQLZ-2U-94" value="" style="endArrow=classic;html=1;rounded=0;strokeColor=#FF0000;strokeWidth=2;fontSize=12;exitX=1;exitY=0.5;exitDx=0;exitDy=0;dashed=1;entryX=0;entryY=0.5;entryDx=0;entryDy=0;dashPattern=1 1;startArrow=classic;startFill=1;" parent="-sKiiCvHk2BtwBTyNo6D-1" target="Lkpm1lcb8TPIVfQLZ-2U-83" edge="1">
          <mxGeometry width="50" height="50" relative="1" as="geometry">
            <mxPoint x="120" y="130" as="sourcePoint" />
            <mxPoint x="280" y="110" as="targetPoint" />
            <Array as="points">
              <mxPoint x="200" y="130" />
            </Array>
          </mxGeometry>
        </mxCell>
        <mxCell id="Lkpm1lcb8TPIVfQLZ-2U-68" value="&lt;font style=&quot;font-size: 12px;&quot;&gt;完成&lt;/font&gt;" style="rounded=1;whiteSpace=wrap;html=1;fontSize=12;fillColor=#f5f5f5;strokeColor=#666666;fontColor=#333333;" parent="-sKiiCvHk2BtwBTyNo6D-1" vertex="1">
          <mxGeometry x="280" y="250" width="120" height="60" as="geometry" />
        </mxCell>
        <mxCell id="Lkpm1lcb8TPIVfQLZ-2U-96" value="&lt;font style=&quot;font-size: 12px;&quot;&gt;条件过滤&lt;/font&gt;" style="rounded=1;whiteSpace=wrap;html=1;fontSize=12;fillColor=#d5e8d4;strokeColor=#82b366;" parent="-sKiiCvHk2BtwBTyNo6D-1" vertex="1">
          <mxGeometry x="650" y="200" width="120" height="60" as="geometry" />
        </mxCell>
        <mxCell id="Lkpm1lcb8TPIVfQLZ-2U-98" value="" style="edgeStyle=orthogonalEdgeStyle;rounded=0;orthogonalLoop=1;jettySize=auto;html=1;" parent="-sKiiCvHk2BtwBTyNo6D-1" source="Lkpm1lcb8TPIVfQLZ-2U-63" target="Lkpm1lcb8TPIVfQLZ-2U-96" edge="1">
          <mxGeometry relative="1" as="geometry" />
        </mxCell>
        <mxCell id="Lkpm1lcb8TPIVfQLZ-2U-97" value="" style="endArrow=classic;html=1;rounded=0;strokeColor=#009900;strokeWidth=2;fontSize=12;entryX=1;entryY=0.5;entryDx=0;entryDy=0;" parent="-sKiiCvHk2BtwBTyNo6D-1" edge="1">
          <mxGeometry width="50" height="50" relative="1" as="geometry">
            <mxPoint x="710" y="260" as="sourcePoint" />
            <mxPoint x="400.0000000000002" y="280" as="targetPoint" />
            <Array as="points">
              <mxPoint x="710" y="280" />
            </Array>
          </mxGeometry>
        </mxCell>
        <mxCell id="Lkpm1lcb8TPIVfQLZ-2U-99" value="&lt;p style=&quot;line-height: 160%;&quot;&gt;&lt;font style=&quot;font-size: 13px;&quot; color=&quot;#ff0000&quot;&gt;①. key = 版本+分页+长度,笛卡尔积&lt;br&gt;②. key存在, 返回详情&lt;br&gt;③. key无效, 重新生成详情&lt;/font&gt;&lt;/p&gt;" style="text;html=1;strokeColor=none;fillColor=none;align=left;verticalAlign=middle;whiteSpace=wrap;rounded=0;" parent="-sKiiCvHk2BtwBTyNo6D-1" vertex="1">
          <mxGeometry x="80" y="160" width="210" height="80" as="geometry" />
        </mxCell>
        <mxCell id="Lkpm1lcb8TPIVfQLZ-2U-101" value="&lt;p style=&quot;line-height: 160%;&quot;&gt;&lt;font style=&quot;font-size: 13px;&quot;&gt;①. 定期生成1份完整详情&lt;br&gt;②. 实时根据参数过滤&lt;br&gt;③. 返回符合条件的详情&lt;br&gt;&lt;/font&gt;&lt;/p&gt;" style="text;html=1;strokeColor=none;fillColor=none;align=left;verticalAlign=middle;whiteSpace=wrap;rounded=0;fontColor=#009900;" parent="-sKiiCvHk2BtwBTyNo6D-1" vertex="1">
          <mxGeometry x="400" y="160" width="210" height="80" as="geometry" />
        </mxCell>
      </root>
    </mxGraphModel>
  </diagram>
</mxfile>
